<svg xmlns="http://www.w3.org/2000/svg" viewBox="0 -13 1383 236" fill="none">
  <!-- Isotipo (ClinicBoard Mark) — azul primario en claro -->
  <g transform="translate(5, -8) scale(0.7847)">
    <path fill="#0ca488" d="M 222.453125 873.703125 C 226.195312 895.371094 246.867188 909.957031 268.539062 906.214844 C 290.203125 902.472656 304.789062 881.796875 301.046875 860.128906 C 297.667969 840.574219 280.503906 826.792969 261.257812 827.042969 C 259.78125 819.414062 258.492188 810.824219 268.554688 801.714844 C 276.003906 794.972656 287.945312 792.671875 298.980469 795.863281 C 312.125 799.660156 322.441406 811.238281 330.804688 822.070312 C 341.226562 835.574219 353.035156 847.210938 363.207031 856.820312 C 372.71875 865.804688 383.171875 871.621094 393.445312 873.648438 C 398.542969 874.652344 403.492188 874.738281 408.167969 873.933594 C 412.8125 873.128906 417.183594 871.445312 421.160156 868.902344 C 429.46875 863.582031 434.898438 855.808594 437.292969 845.785156 C 439.007812 838.632812 439.164062 830.453125 437.773438 820.78125 C 437.707031 820.320312 437.597656 819.875 437.453125 819.445312 C 450.402344 815.617188 461.867188 807.652344 470.925781 796.117188 C 482.8125 780.96875 490.503906 760 493.792969 733.789062 C 494.089844 731.445312 493.253906 729.21875 491.714844 727.660156 C 494.914062 698.273438 492.140625 673.089844 492.007812 671.902344 L 491.976562 671.691406 C 489.171875 654.199219 481.996094 643.117188 469.386719 636.8125 C 461.210938 632.726562 451.34375 630.875 439.011719 630.007812 C 437.144531 624.242188 431.472656 619.894531 424.558594 619.5625 C 415.84375 619.140625 408.46875 625.277344 408.085938 633.257812 C 407.699219 641.242188 414.460938 648.054688 423.171875 648.46875 C 430.167969 648.808594 436.296875 644.917969 438.644531 639.242188 C 449.550781 640.042969 458.449219 641.664062 465.257812 645.066406 C 475.082031 649.980469 480.511719 658.609375 482.84375 673.039062 C 483.03125 674.777344 485.503906 699.011719 482.542969 726.546875 C 480.695312 727.683594 479.363281 729.621094 479.074219 731.941406 C 473.644531 775.242188 455.441406 801.714844 427.8125 806.488281 L 427.59375 806.527344 C 414.800781 809.128906 401.996094 806.042969 389.554688 797.335938 C 376.527344 788.21875 364.382812 773.042969 354.4375 753.449219 C 353.382812 751.371094 351.480469 750.003906 349.367188 749.554688 C 337.339844 724.605469 331.542969 700.949219 331.136719 699.246094 C 326.679688 675 336.703125 663.683594 361.34375 652.667969 C 365.464844 657.179688 372.511719 658.761719 378.960938 656.109375 C 387.035156 652.792969 391.113281 644.109375 388.074219 636.71875 C 385.035156 629.324219 376.03125 626.023438 367.957031 629.34375 C 361.53125 631.980469 357.640625 638.023438 357.855469 644.105469 C 346.871094 648.992188 338.074219 654.191406 331.691406 660.929688 C 321.960938 671.207031 318.910156 683.949219 322.074219 701.042969 L 322.117188 701.246094 C 322.390625 702.410156 328.222656 727.0625 341.097656 753.675781 C 340.167969 755.671875 340.132812 758.050781 341.207031 760.164062 C 352.410156 782.238281 365.816406 798.832031 381.046875 809.488281 C 394.378906 818.816406 408.753906 823.105469 423.019531 822.097656 C 423.027344 822.359375 423.050781 822.625 423.089844 822.890625 C 425.527344 839.855469 422.375 850.507812 413.160156 856.402344 C 402.578125 863.175781 387.339844 859.203125 373.390625 846.03125 C 363.636719 836.816406 352.347656 825.691406 342.546875 813 C 332.71875 800.273438 320.347656 786.589844 303.097656 781.605469 C 287.238281 777.023438 269.769531 780.597656 258.597656 790.710938 C 242.40625 805.371094 245.007812 821.132812 246.71875 829.976562 C 229.742188 836.882812 219.214844 854.914062 222.460938 873.699219 Z M 237.070312 871.179688 C 234.71875 857.574219 243.878906 844.589844 257.484375 842.242188 C 271.089844 839.890625 284.070312 849.050781 286.421875 862.65625 C 288.769531 876.257812 279.613281 889.242188 266.007812 891.59375 C 252.402344 893.941406 239.421875 884.785156 237.070312 871.179688 Z" transform="translate(-221, -619)"/>
  </g>

  <!-- Wordmark (ClinicBoard Text) — índigo profundo en claro -->
  <g transform="translate(239, 183) scale(1.5527)">
    <g fill="#0ca488">
        <!-- clinic -->
        <path d="M 42.775 1.578 C 35.439 1.578 29.06 -0.051 23.634 -3.312 C 18.216 -6.57 14.013 -11.141 11.025 -17.016 C 8.044 -22.891 6.556 -29.695 6.556 -37.438 C 6.556 -45.227 8.044 -52.062 11.025 -57.938 C 14.013 -63.812 18.216 -68.379 23.634 -71.641 C 29.06 -74.898 35.439 -76.531 42.775 -76.531 C 47.095 -76.531 51.103 -75.957 54.791 -74.812 C 58.486 -73.676 61.767 -72.023 64.634 -69.859 C 67.509 -67.703 69.888 -65.098 71.775 -62.047 C 73.67 -58.992 74.978 -55.578 75.697 -51.797 L 58.963 -49.125 C 57.671875 -51.082031 57 -52.859375 56.0625 -54.453125 C 55.125 -56.046875 53.984375 -57.410156 52.640625 -58.546875 C 51.296875 -59.691406 49.734375 -60.582031 47.953125 -61.21875 C 46.179688 -61.851562 44.203125 -62.171875 42.015625 -62.171875 C 37.960938 -62.171875 34.582031 -61.097656 31.875 -58.953125 C 29.164062 -56.816406 27.113281 -53.894531 25.71875 -50.1875 C 24.332031 -46.476562 23.640625 -42.226562 23.640625 -37.4375 C 23.640625 -32.75 24.332031 -28.546875 25.71875 -24.828125 C 27.113281 -21.117188 29.164062 -18.191406 31.875 -16.046875 C 34.582031 -13.910156 37.960938 -12.84375 42.015625 -12.84375 C 44.203125 -12.84375 46.195312 -13.160156 48 -13.796875 C 49.800781 -14.441406 51.382812 -15.34375 52.75 -16.5 C 54.113281 -17.664062 55.257812 -19.085938 56.1875 -20.765625 C 57.125 -22.453125 57.800781 -24.320312 58.21875 -26.375 L 74.953125 -23.640625 C 74.273438 -19.765625 72.976562 -16.289062 71.0625 -13.21875 C 69.144531 -10.144531 66.75 -7.503906 63.875 -5.296875 C 61.007812 -3.085938 57.71875 -1.390625 54 -0.203125 C 50.289062 0.984375 46.253906 1.578125 41.890625 1.578125 Z" transform="translate(0.88, 0)"/>
        <path d="M 26.641 -101.812 L 26.641 0 L 9.016 0 L 9.016 -101.812 Z" transform="translate(81.24, 0)"/>
        <path d="M 9.016 0 L 9.016 -75.438 L 26.641 -75.438 L 26.641 0 Z M 17.828 -86.234 C 14.961 -86.234 12.523 -87.188 10.516 -89.094 C 8.516 -91.008 7.516 -93.312 7.516 -96 C 7.516 -98.738 8.516 -101.039 10.516 -102.906 C 12.523 -104.77 14.961 -105.703 17.828 -105.703 C 20.703 -105.703 23.148 -104.77 25.172 -102.906 C 27.203 -101.039 28.219 -98.738 28.219 -96 C 28.219 -93.312 27.203 -91.008 25.172 -89.094 C 23.148 -87.188 20.703 -86.234 17.828 -86.234 Z" transform="translate(116.91, 0)"/>
        <path d="M 26.641 -43.859 L 26.641 0 L 9.016 0 L 9.016 -75.438 L 25.891 -75.438 L 26.109 -56.719 L 24.25 -56.719 C 26.395 -63.27 29.551 -68.207 33.719 -71.531 C 37.883 -74.863 43.086 -76.531 49.328 -76.531 C 54.523 -76.531 59.082 -75.41 63 -73.172 C 66.914 -70.941 69.953 -67.688 72.109 -63.406 C 74.273 -59.125 75.359 -53.91 75.359 -47.766 L 75.359 0 L 57.734 0 L 57.734 -45.031 C 57.734 -50.219 56.422 -54.242 53.797 -57.109 C 51.18 -59.984 47.531 -61.422 42.844 -61.422 C 39.75 -61.422 36.984 -60.75 34.547 -59.406 C 32.109 -58.062 30.18 -56.094 28.766 -53.5 C 27.348 -50.906 26.641 -47.691 26.641 -43.859 Z" transform="translate(152.57, 0)"/>
        <path d="M 9.016 0 L 9.016 -75.438 L 26.641 -75.438 L 26.641 0 Z M 17.828 -86.234 C 14.961 -86.234 12.523 -87.188 10.516 -89.094 C 8.516 -91.008 7.516 -93.312 7.516 -96 C 7.516 -98.738 8.516 -101.039 10.516 -102.906 C 12.523 -104.77 14.961 -105.703 17.828 -105.703 C 20.703 -105.703 23.148 -104.77 25.172 -102.906 C 27.203 -101.039 28.219 -98.738 28.219 -96 C 28.219 -93.312 27.203 -91.008 25.172 -89.094 C 23.148 -87.188 20.703 -86.234 17.828 -86.234 Z" transform="translate(236.96, 0)"/>
        <path d="M 41.891 1.578 C 34.555 1.578 28.176 -0.051 22.75 -3.312 C 17.332 -6.57 13.129 -11.141 10.141 -17.016 C 7.16 -22.891 5.672 -29.695 5.672 -37.438 C 5.672 -45.227 7.16 -52.062 10.141 -57.938 C 13.129 -63.812 17.332 -68.379 22.75 -71.641 C 28.176 -74.898 34.555 -76.531 41.891 -76.531 C 46.211 -76.531 50.219 -75.957 53.906 -74.812 C 57.602 -73.676 60.883 -72.023 63.75 -69.859 C 66.625 -67.703 69.004 -65.098 70.891 -62.047 C 72.785 -58.992 74.094 -55.578 74.812 -51.797 L 58.078 -49.125 C 57.672 -51.082 57 -52.859 56.062 -54.453 C 55.125 -56.047 53.984 -57.41 52.641 -58.547 C 51.297 -59.691 49.734 -60.582 47.953 -61.219 C 46.18 -61.852 44.203 -62.172 42.016 -62.172 C 37.961 -62.172 34.582 -61.098 31.875 -58.953 C 29.164 -56.816 27.113 -53.895 25.719 -50.188 C 24.332 -46.477 23.641 -42.227 23.641 -37.438 C 23.641 -32.75 24.332 -28.547 25.719 -24.828 C 27.113 -21.117 29.164 -18.191 31.875 -16.047 C 34.582 -13.91 37.961 -12.844 42.016 -12.844 C 44.203 -12.844 46.195 -13.16 48 -13.797 C 49.801 -14.441 51.383 -15.344 52.75 -16.5 C 54.113 -17.664 55.258 -19.086 56.188 -20.766 C 57.125 -22.453 57.801 -24.32 58.219 -26.375 L 74.953 -23.641 C 74.273 -19.766 72.977 -16.289 71.062 -13.219 C 69.145 -10.145 66.75 -7.504 63.875 -5.297 C 61.008 -3.086 57.719 -1.391 54 -0.203 C 50.289 0.984 46.254 1.578 41.891 1.578 Z" transform="translate(272.63, 0)"/>

        <!-- board -->
        <path d="M 49.062 1.438 C 44.957 1.438 41.469 0.754 38.594 -0.609 C 35.727 -1.984 33.383 -3.68 31.562 -5.703 C 29.738 -7.734 28.281 -9.797 27.188 -11.891 L 26.312 -11.891 L 26.312 0 L 9.016 0 L 9.016 -101.812 L 26.641 -101.812 L 26.641 -63.344 L 27.266 -63.344 C 28.359 -65.344 29.789 -67.352 31.562 -69.375 C 33.344 -71.406 35.656 -73.102 38.5 -74.469 C 41.352 -75.844 44.895 -76.531 49.125 -76.531 C 55.094 -76.531 60.43 -75.004 65.141 -71.953 C 69.859 -68.898 73.594 -64.477 76.344 -58.688 C 79.102 -52.906 80.484 -45.867 80.484 -37.578 C 80.484 -29.422 79.141 -22.438 76.453 -16.625 C 73.766 -10.82 70.051 -6.359 65.312 -3.234 C 60.582 -0.117 55.164 1.438 49.062 1.438 Z M 44.406 -13.188 C 48.281 -13.188 51.562 -14.223 54.25 -16.297 C 56.938 -18.367 58.984 -21.25 60.391 -24.938 C 61.805 -28.625 62.516 -32.863 62.516 -37.656 C 62.516 -42.477 61.82 -46.711 60.438 -50.359 C 59.051 -54.004 57.016 -56.848 54.328 -58.891 C 51.641 -60.941 48.332 -61.969 44.406 -61.969 C 40.539 -61.969 37.25 -60.969 34.531 -58.969 C 31.82 -56.969 29.75 -54.145 28.312 -50.5 C 26.883 -46.852 26.172 -42.57 26.172 -37.656 C 26.172 -32.781 26.883 -28.508 28.312 -24.844 C 29.75 -21.176 31.832 -18.316 34.562 -16.266 C 37.301 -14.211 40.582 -13.188 44.406 -13.188 Z" transform="translate(352.98, 0)"/>
        <path d="M 41.953 1.578 C 34.617 1.578 28.227 -0.051 22.781 -3.312 C 17.344 -6.57 13.129 -11.129 10.141 -16.984 C 7.16 -22.836 5.672 -29.656 5.672 -37.438 C 5.672 -45.227 7.16 -52.062 10.141 -57.938 C 13.129 -63.812 17.344 -68.379 22.781 -71.641 C 28.227 -74.898 34.617 -76.531 41.953 -76.531 C 49.328 -76.531 55.738 -74.898 61.188 -71.641 C 66.633 -68.379 70.848 -63.812 73.828 -57.938 C 76.816 -52.062 78.312 -45.227 78.312 -37.438 C 78.312 -29.656 76.816 -22.836 73.828 -16.984 C 70.848 -11.129 66.633 -6.57 61.188 -3.312 C 55.738 -0.051 49.328 1.578 41.953 1.578 Z M 41.953 -12.844 C 46.004 -12.844 49.395 -13.926 52.125 -16.094 C 54.863 -18.258 56.926 -21.195 58.312 -24.906 C 59.707 -28.613 60.406 -32.789 60.406 -37.438 C 60.406 -42.176 59.707 -46.398 58.312 -50.109 C 56.926 -53.828 54.863 -56.754 52.125 -58.891 C 49.395 -61.035 46.004 -62.109 41.953 -62.109 C 37.941 -62.109 34.566 -61.035 31.828 -58.891 C 29.098 -56.754 27.051 -53.828 25.688 -50.109 C 24.32 -46.398 23.641 -42.176 23.641 -37.438 C 23.641 -32.789 24.32 -28.613 25.688 -24.906 C 27.051 -21.195 29.098 -18.258 31.828 -16.094 C 34.566 -13.926 37.941 -12.844 41.953 -12.844 Z" transform="translate(439.15, 0)"/>
        <path d="M 30.547 1.5 C 25.711 1.5 21.367 0.633 17.516 -1.094 C 13.672 -2.82 10.633 -5.367 8.406 -8.734 C 6.176 -12.109 5.062 -16.281 5.062 -21.25 C 5.062 -25.531 5.859 -29.062 7.453 -31.844 C 9.047 -34.625 11.219 -36.844 13.969 -38.5 C 16.727 -40.164 19.836 -41.43 23.297 -42.297 C 26.766 -43.16 30.344 -43.773 34.031 -44.141 C 38.488 -44.641 42.082 -45.07 44.813 -45.438 C 47.551 -45.801 49.547 -46.391 50.797 -47.203 C 52.055 -48.023 52.688 -49.281 52.688 -50.969 L 52.688 -51.391 C 52.688 -53.797 52.172 -55.852 51.141 -57.562 C 50.117 -59.27 48.629 -60.578 46.672 -61.484 C 44.711 -62.398 42.273 -62.859 39.359 -62.859 C 36.484 -62.859 33.961 -62.414 31.797 -61.531 C 29.641 -60.645 27.891 -59.457 26.547 -57.969 C 25.203 -56.488 24.254 -54.863 23.703 -53.094 L 7.25 -55.688 C 8.477 -60.289 10.602 -64.129 13.625 -67.203 C 16.656 -70.273 20.367 -72.598 24.766 -74.172 C 29.16 -75.742 34.047 -76.531 39.422 -76.531 C 43.254 -76.531 47.004 -76.07 50.672 -75.156 C 54.336 -74.25 57.648 -72.781 60.609 -70.75 C 63.566 -68.727 65.922 -66.066 67.672 -62.766 C 69.43 -59.461 70.312 -55.414 70.312 -50.625 L 70.312 0 L 53.297 0 L 53.297 -10.453 L 52.688 -10.453 C 51.594 -8.316 50.066 -6.336 48.109 -4.516 C 46.148 -2.691 43.723 -1.234 40.828 -0.141 C 37.93 0.953 34.504 1.5 30.547 1.5 Z M 35.047 -11.609 C 38.691 -11.609 41.848 -12.328 44.516 -13.766 C 47.18 -15.203 49.227 -17.102 50.656 -19.469 C 52.094 -21.844 52.812 -24.441 52.812 -27.266 L 52.812 -36.016 C 52.227 -35.555 51.285 -35.133 49.984 -34.75 C 48.68 -34.363 47.195 -34.02 45.531 -33.719 C 43.875 -33.426 42.211 -33.156 40.547 -32.906 C 38.891 -32.656 37.422 -32.457 36.141 -32.312 C 33.547 -31.945 31.188 -31.344 29.062 -30.5 C 26.945 -29.664 25.273 -28.531 24.047 -27.094 C 22.816 -25.656 22.203 -23.773 22.203 -21.453 C 22.203 -19.316 22.75 -17.52 23.844 -16.062 C 24.938 -14.602 26.438 -13.492 28.344 -12.734 C 30.258 -11.984 32.492 -11.609 35.047 -11.609 Z" transform="translate(524.42, 0)"/>
        <path d="M 9.016 0 L 9.016 -75.438 L 26.109 -75.438 L 26.109 -62.859 L 26.781 -62.859 C 28.145 -67.234 30.469 -70.582 33.75 -72.906 C 37.031 -75.227 40.906 -76.391 45.375 -76.391 C 46.414 -76.391 47.516 -76.352 48.672 -76.281 C 49.836 -76.219 50.832 -76.117 51.656 -75.984 L 51.656 -59.859 C 50.926 -60.035 49.754 -60.211 48.141 -60.391 C 46.523 -60.578 44.922 -60.672 43.328 -60.672 C 40.18 -60.672 37.344 -59.988 34.812 -58.625 C 32.281 -57.258 30.285 -55.332 28.828 -52.844 C 27.367 -50.363 26.641 -47.414 26.641 -44 L 26.641 0 Z" transform="translate(603.75, 0)"/>
        <path d="M 37.109 1.438 C 31.047 1.438 25.645 -0.117 20.906 -3.234 C 16.164 -6.359 12.441 -10.82 9.734 -16.625 C 7.023 -22.438 5.672 -29.422 5.672 -37.578 C 5.672 -45.867 7.047 -52.906 9.797 -58.688 C 12.555 -64.477 16.305 -68.898 21.047 -71.953 C 25.785 -75.004 31.113 -76.531 37.031 -76.531 C 41.27 -76.531 44.812 -75.844 47.656 -74.469 C 50.508 -73.102 52.844 -71.406 54.656 -69.375 C 56.477 -67.352 57.895 -65.344 58.906 -63.344 L 59.516 -63.344 L 59.516 -101.812 L 77.141 -101.812 L 77.141 0 L 59.859 0 L 59.859 -11.891 L 58.969 -11.891 C 57.914 -9.797 56.469 -7.734 54.625 -5.703 C 52.781 -3.68 50.438 -1.984 47.594 -0.609 C 44.75 0.754 41.254 1.438 37.109 1.438 Z M 41.75 -13.188 C 45.625 -13.188 48.914 -14.211 51.625 -16.266 C 54.332 -18.316 56.406 -21.176 57.844 -24.844 C 59.281 -28.508 60 -32.781 60 -37.656 C 60 -42.57 59.289 -46.852 57.875 -50.5 C 56.457 -54.145 54.383 -56.969 51.656 -58.969 C 48.926 -60.969 45.625 -61.969 41.75 -61.969 C 37.875 -61.969 34.594 -60.941 31.906 -58.891 C 29.219 -56.848 27.176 -54.004 25.781 -50.359 C 24.395 -46.711 23.703 -42.477 23.703 -37.656 C 23.703 -32.863 24.395 -28.625 25.781 -24.938 C 27.176 -21.25 29.227 -18.367 31.938 -16.297 C 34.656 -14.223 37.926 -13.188 41.75 -13.188 Z" transform="translate(655.41, 0)"/>
    </g>
  </g>
</svg>
