<svg xmlns="http://www.w3.org/2000/svg" viewBox="221 619 273 288" fill="none">
  <path fill="#0ca488" d="M 222.453125 873.703125 C 226.195312 895.371094 246.867188 909.957031 268.539062 906.214844 C 290.203125 902.472656 304.789062 881.796875 301.046875 860.128906 C 297.667969 840.574219 280.503906 826.792969 261.257812 827.042969 C 259.78125 819.414062 258.492188 810.824219 268.554688 801.714844 C 276.003906 794.972656 287.945312 792.671875 298.980469 795.863281 C 312.125 799.660156 322.441406 811.238281 330.804688 822.070312 C 341.226562 835.574219 353.035156 847.210938 363.207031 856.820312 C 372.71875 865.804688 383.171875 871.621094 393.445312 873.648438 C 398.542969 874.652344 403.492188 874.738281 408.167969 873.933594 C 412.8125 873.128906 417.183594 871.445312 421.160156 868.902344 C 429.46875 863.582031 434.898438 855.808594 437.292969 845.785156 C 439.007812 838.632812 439.164062 830.453125 437.773438 820.78125 C 437.707031 820.320312 437.597656 819.875 437.453125 819.445312 C 450.402344 815.617188 461.867188 807.652344 470.925781 796.117188 C 482.8125 780.96875 490.503906 760 493.792969 733.789062 C 494.089844 731.445312 493.253906 729.21875 491.714844 727.660156 C 494.914062 698.273438 492.140625 673.089844 492.007812 671.902344 L 491.976562 671.691406 C 489.171875 654.199219 481.996094 643.117188 469.386719 636.8125 C 461.210938 632.726562 451.34375 630.875 439.011719 630.007812 C 437.144531 624.242188 431.472656 619.894531 424.558594 619.5625 C 415.84375 619.140625 408.46875 625.277344 408.085938 633.257812 C 407.699219 641.242188 414.460938 648.054688 423.171875 648.46875 C 430.167969 648.808594 436.296875 644.917969 438.644531 639.242188 C 449.550781 640.042969 458.449219 641.664062 465.257812 645.066406 C 475.082031 649.980469 480.511719 658.609375 482.84375 673.039062 C 483.03125 674.777344 485.503906 699.011719 482.542969 726.546875 C 480.695312 727.683594 479.363281 729.621094 479.074219 731.941406 C 473.644531 775.242188 455.441406 801.714844 427.8125 806.488281 L 427.59375 806.527344 C 414.800781 809.128906 401.996094 806.042969 389.554688 797.335938 C 376.527344 788.21875 364.382812 773.042969 354.4375 753.449219 C 353.382812 751.371094 351.480469 750.003906 349.367188 749.554688 C 337.339844 724.605469 331.542969 700.949219 331.136719 699.246094 C 326.679688 675 336.703125 663.683594 361.34375 652.667969 C 365.464844 657.179688 372.511719 658.761719 378.960938 656.109375 C 387.035156 652.792969 391.113281 644.109375 388.074219 636.71875 C 385.035156 629.324219 376.03125 626.023438 367.957031 629.34375 C 361.53125 631.980469 357.640625 638.023438 357.855469 644.105469 C 346.871094 648.992188 338.074219 654.191406 331.691406 660.929688 C 321.960938 671.207031 318.910156 683.949219 322.074219 701.042969 L 322.117188 701.246094 C 322.390625 702.410156 328.222656 727.0625 341.097656 753.675781 C 340.167969 755.671875 340.132812 758.050781 341.207031 760.164062 C 352.410156 782.238281 365.816406 798.832031 381.046875 809.488281 C 394.378906 818.816406 408.753906 823.105469 423.019531 822.097656 C 423.027344 822.359375 423.050781 822.625 423.089844 822.890625 C 425.527344 839.855469 422.375 850.507812 413.160156 856.402344 C 402.578125 863.175781 387.339844 859.203125 373.390625 846.03125 C 363.636719 836.816406 352.347656 825.691406 342.546875 813 C 332.71875 800.273438 320.347656 786.589844 303.097656 781.605469 C 287.238281 777.023438 269.769531 780.597656 258.597656 790.710938 C 242.40625 805.371094 245.007812 821.132812 246.71875 829.976562 C 229.742188 836.882812 219.214844 854.914062 222.460938 873.699219 Z M 237.070312 871.179688 C 234.71875 857.574219 243.878906 844.589844 257.484375 842.242188 C 271.089844 839.890625 284.070312 849.050781 286.421875 862.65625 C 288.769531 876.257812 279.613281 889.242188 266.007812 891.59375 C 252.402344 893.941406 239.421875 884.785156 237.070312 871.179688 Z M 237.070312 871.179688 " fill-rule="nonzero"/>
</svg>
