<svg xmlns="http://www.w3.org/2000/svg" xmlns:xlink="http://www.w3.org/1999/xlink" width="1920" zoomAndPan="magnify" viewBox="0 0 1440 809.999993" height="1080" preserveAspectRatio="xMidYMid meet" version="1.0"><defs><g/><clipPath id="1c13b19ea9"><path d="M 82 189 L 491.25 189 L 491.25 621 L 82 621 Z M 82 189 " clip-rule="nonzero"/></clipPath><clipPath id="795565daf9"><rect x="0" width="813" y="0" height="226"/></clipPath></defs><g clip-path="url(#1c13b19ea9)"><path fill="#0ca488" d="M 83.183594 571.117188 C 88.808594 603.652344 119.871094 625.554688 152.4375 619.9375 C 184.996094 614.316406 206.914062 583.269531 201.289062 550.734375 C 196.210938 521.371094 170.417969 500.675781 141.496094 501.050781 C 139.277344 489.597656 137.339844 476.699219 152.460938 463.019531 C 163.65625 452.894531 181.601562 449.441406 198.183594 454.234375 C 217.9375 459.933594 233.441406 477.320312 246.007812 493.585938 C 261.671875 513.863281 279.414062 531.335938 294.703125 545.765625 C 308.996094 559.257812 324.703125 567.988281 340.140625 571.035156 C 347.800781 572.542969 355.238281 572.671875 362.265625 571.460938 C 369.246094 570.253906 375.8125 567.726562 381.789062 563.90625 C 394.277344 555.917969 402.433594 544.246094 406.035156 529.195312 C 408.609375 518.457031 408.84375 506.171875 406.753906 491.648438 C 406.65625 490.957031 406.492188 490.289062 406.273438 489.644531 C 425.734375 483.894531 442.960938 471.933594 456.574219 454.613281 C 474.4375 431.867188 485.996094 400.382812 490.9375 361.023438 C 491.386719 357.503906 490.128906 354.160156 487.816406 351.820312 C 492.625 307.691406 488.457031 269.878906 488.257812 268.09375 L 488.210938 267.777344 C 483.996094 241.511719 473.210938 224.871094 454.261719 215.40625 C 441.976562 209.269531 427.148438 206.488281 408.617188 205.1875 C 405.8125 196.527344 397.289062 190 386.898438 189.5 C 373.800781 188.867188 362.71875 198.082031 362.144531 210.066406 C 361.5625 222.054688 371.722656 232.285156 384.8125 232.90625 C 395.328125 233.417969 404.535156 227.574219 408.066406 219.050781 C 424.453125 220.253906 437.828125 222.6875 448.058594 227.796875 C 462.820312 235.175781 470.980469 248.132812 474.484375 269.800781 C 474.765625 272.410156 478.484375 308.800781 474.03125 350.148438 C 471.257812 351.855469 469.253906 354.765625 468.820312 358.25 C 460.660156 423.269531 433.304688 463.019531 391.785156 470.1875 L 391.457031 470.246094 C 372.234375 474.152344 352.992188 469.519531 334.296875 456.445312 C 314.71875 442.753906 296.46875 419.964844 281.523438 390.542969 C 279.9375 387.425781 277.078125 385.371094 273.902344 384.695312 C 255.828125 347.234375 247.117188 311.710938 246.507812 309.152344 C 239.808594 272.746094 254.871094 255.753906 291.902344 239.210938 C 298.09375 245.988281 308.683594 248.363281 318.375 244.378906 C 330.507812 239.402344 336.636719 226.359375 332.070312 215.261719 C 327.503906 204.160156 313.972656 199.203125 301.839844 204.1875 C 292.183594 208.148438 286.335938 217.222656 286.660156 226.355469 C 270.152344 233.691406 256.933594 241.5 247.339844 251.617188 C 232.71875 267.050781 228.132812 286.183594 232.890625 311.851562 L 232.953125 312.15625 C 233.363281 313.90625 242.128906 350.921875 261.476562 390.886719 C 260.078125 393.882812 260.027344 397.453125 261.640625 400.628906 C 278.476562 433.773438 298.621094 458.691406 321.511719 474.691406 C 341.542969 488.699219 363.148438 495.140625 384.585938 493.625 C 384.597656 494.019531 384.632812 494.417969 384.691406 494.816406 C 388.351562 520.292969 383.617188 536.285156 369.769531 545.136719 C 353.867188 555.308594 330.964844 549.34375 310.003906 529.566406 C 295.347656 515.726562 278.382812 499.023438 263.652344 479.964844 C 248.886719 460.855469 230.292969 440.308594 204.371094 432.824219 C 180.539062 425.945312 154.289062 431.308594 137.5 446.496094 C 113.167969 468.511719 117.078125 492.175781 119.648438 505.457031 C 94.136719 515.828125 78.316406 542.902344 83.195312 571.109375 Z M 105.148438 567.328125 C 101.617188 546.898438 115.382812 527.398438 135.828125 523.875 C 156.273438 520.34375 175.777344 534.097656 179.3125 554.527344 C 182.839844 574.953125 169.082031 594.449219 148.636719 597.980469 C 128.191406 601.507812 108.683594 587.757812 105.148438 567.328125 Z M 105.148438 567.328125 " fill-opacity="1" fill-rule="nonzero"/></g><g transform="matrix(1, 0, 0, 1, 535, 292)"><g clip-path="url(#795565daf9)"><g fill="#0ca488" fill-opacity="1"><g transform="translate(0.399667, 180.043531)"><g><path d="M 53.734375 1.84375 C 47.359375 1.84375 41.378906 0.75 35.796875 -1.4375 C 30.222656 -3.632812 25.332031 -6.75 21.125 -10.78125 C 16.914062 -14.8125 13.628906 -19.601562 11.265625 -25.15625 C 8.898438 -30.707031 7.71875 -36.84375 7.71875 -43.5625 C 7.71875 -50.28125 8.898438 -56.414062 11.265625 -61.96875 C 13.628906 -67.519531 16.914062 -72.320312 21.125 -76.375 C 25.332031 -80.4375 30.222656 -83.5625 35.796875 -85.75 C 41.378906 -87.945312 47.359375 -89.046875 53.734375 -89.046875 C 59.109375 -89.046875 64.234375 -88.171875 69.109375 -86.421875 C 73.984375 -84.671875 78.421875 -82.1875 82.421875 -78.96875 C 86.429688 -75.757812 89.78125 -71.960938 92.46875 -67.578125 C 93.050781 -66.578125 93.195312 -65.640625 92.90625 -64.765625 C 92.613281 -63.890625 91.972656 -63.191406 90.984375 -62.671875 L 84.140625 -58.28125 C 82.273438 -57.289062 80.640625 -57.757812 79.234375 -59.6875 C 76.546875 -64.007812 72.976562 -67.457031 68.53125 -70.03125 C 64.09375 -72.601562 59.160156 -73.890625 53.734375 -73.890625 C 49.523438 -73.890625 45.609375 -73.171875 41.984375 -71.734375 C 38.359375 -70.304688 35.15625 -68.25 32.375 -65.5625 C 29.601562 -62.875 27.441406 -59.671875 25.890625 -55.953125 C 24.347656 -52.242188 23.578125 -48.113281 23.578125 -43.5625 C 23.578125 -39 24.347656 -34.863281 25.890625 -31.15625 C 27.441406 -27.445312 29.601562 -24.257812 32.375 -21.59375 C 35.15625 -18.9375 38.359375 -16.878906 41.984375 -15.421875 C 45.609375 -13.960938 49.523438 -13.234375 53.734375 -13.234375 C 58.929688 -13.234375 63.804688 -14.519531 68.359375 -17.09375 C 72.921875 -19.664062 76.488281 -23.082031 79.0625 -27.34375 C 80.519531 -29.382812 82.15625 -29.910156 83.96875 -28.921875 L 90.984375 -24.1875 C 93.078125 -22.957031 93.539062 -21.378906 92.375 -19.453125 C 89.75 -15.128906 86.421875 -11.359375 82.390625 -8.140625 C 78.359375 -4.929688 73.882812 -2.460938 68.96875 -0.734375 C 64.0625 0.984375 58.984375 1.84375 53.734375 1.84375 Z M 53.734375 1.84375 "/></g></g></g><g fill="#0ca488" fill-opacity="1"><g transform="translate(91.778554, 180.043531)"><g><path d="M 35.0625 1.84375 C 30.5 1.84375 26.421875 0.9375 22.828125 -0.875 C 19.234375 -2.6875 16.398438 -5.359375 14.328125 -8.890625 C 12.253906 -12.429688 11.21875 -16.710938 11.21875 -21.734375 L 11.21875 -131.03125 C 11.21875 -133.425781 12.414062 -134.625 14.8125 -134.625 L 23.484375 -134.625 C 25.878906 -134.625 27.078125 -133.425781 27.078125 -131.03125 L 27.078125 -24.984375 C 27.078125 -20.660156 27.925781 -17.472656 29.625 -15.421875 C 31.320312 -13.378906 33.660156 -12.359375 36.640625 -12.359375 C 37.453125 -12.359375 38.382812 -12.445312 39.4375 -12.625 C 40.488281 -12.800781 41.597656 -13.09375 42.765625 -13.5 C 44.929688 -14.3125 46.484375 -13.640625 47.421875 -11.484375 L 49.515625 -5 C 50.335938 -2.832031 49.664062 -1.253906 47.5 -0.265625 C 45.34375 0.734375 43.210938 1.332031 41.109375 1.53125 C 39.003906 1.738281 36.988281 1.84375 35.0625 1.84375 Z M 35.0625 1.84375 "/></g></g></g><g fill="#0ca488" fill-opacity="1"><g transform="translate(136.795036, 180.043531)"><g><path d="M 19.71875 -98.515625 C 16.507812 -98.515625 13.835938 -99.566406 11.703125 -101.671875 C 9.566406 -103.773438 8.5 -106.429688 8.5 -109.640625 C 8.5 -112.796875 9.566406 -115.453125 11.703125 -117.609375 C 13.835938 -119.773438 16.507812 -120.859375 19.71875 -120.859375 C 22.875 -120.859375 25.503906 -119.773438 27.609375 -117.609375 C 29.710938 -115.453125 30.765625 -112.796875 30.765625 -109.640625 C 30.765625 -106.429688 29.710938 -103.773438 27.609375 -101.671875 C 25.503906 -99.566406 22.875 -98.515625 19.71875 -98.515625 Z M 24.109375 0 L 15.34375 0 C 12.945312 0 11.75 -1.195312 11.75 -3.59375 L 11.75 -83.609375 C 11.75 -86.003906 12.945312 -87.203125 15.34375 -87.203125 L 24.109375 -87.203125 C 26.503906 -87.203125 27.703125 -86.003906 27.703125 -83.609375 L 27.703125 -3.59375 C 27.703125 -1.195312 26.503906 0 24.109375 0 Z M 24.109375 0 "/></g></g></g><g fill="#0ca488" fill-opacity="1"><g transform="translate(167.525938, 180.043531)"><g><path d="M 51.796875 -89.046875 C 56.992188 -89.046875 61.566406 -88.171875 65.515625 -86.421875 C 69.460938 -84.671875 72.78125 -82.226562 75.46875 -79.09375 C 78.15625 -75.96875 80.179688 -72.332031 81.546875 -68.1875 C 82.921875 -64.039062 83.609375 -59.570312 83.609375 -54.78125 L 83.609375 -3.59375 C 83.609375 -1.195312 82.410156 0 80.015625 0 L 71.25 0 C 68.851562 0 67.65625 -1.195312 67.65625 -3.59375 L 67.65625 -53.734375 C 67.65625 -57.878906 66.867188 -61.457031 65.296875 -64.46875 C 63.722656 -67.476562 61.515625 -69.8125 58.671875 -71.46875 C 55.835938 -73.132812 52.492188 -73.96875 48.640625 -73.96875 C 45.015625 -73.96875 41.59375 -73.175781 38.375 -71.59375 C 35.164062 -70.019531 32.582031 -67.65625 30.625 -64.5 C 28.675781 -61.351562 27.703125 -57.410156 27.703125 -52.671875 L 27.703125 -3.59375 C 27.703125 -1.195312 26.503906 0 24.109375 0 L 15.34375 0 C 12.945312 0 11.75 -1.195312 11.75 -3.59375 L 11.75 -83.609375 C 11.75 -86.003906 12.945312 -87.203125 15.34375 -87.203125 L 20.25 -87.203125 C 22.53125 -87.203125 23.84375 -86.125 24.1875 -83.96875 L 25.5 -77.046875 C 29.238281 -81.128906 33.398438 -84.148438 37.984375 -86.109375 C 42.578125 -88.066406 47.179688 -89.046875 51.796875 -89.046875 Z M 51.796875 -89.046875 "/></g></g></g><g fill="#0ca488" fill-opacity="1"><g transform="translate(253.208121, 180.043531)"><g><path d="M 19.71875 -98.515625 C 16.507812 -98.515625 13.835938 -99.566406 11.703125 -101.671875 C 9.566406 -103.773438 8.5 -106.429688 8.5 -109.640625 C 8.5 -112.796875 9.566406 -115.453125 11.703125 -117.609375 C 13.835938 -119.773438 16.507812 -120.859375 19.71875 -120.859375 C 22.875 -120.859375 25.503906 -119.773438 27.609375 -117.609375 C 29.710938 -115.453125 30.765625 -112.796875 30.765625 -109.640625 C 30.765625 -106.429688 29.710938 -103.773438 27.609375 -101.671875 C 25.503906 -99.566406 22.875 -98.515625 19.71875 -98.515625 Z M 24.109375 0 L 15.34375 0 C 12.945312 0 11.75 -1.195312 11.75 -3.59375 L 11.75 -83.609375 C 11.75 -86.003906 12.945312 -87.203125 15.34375 -87.203125 L 24.109375 -87.203125 C 26.503906 -87.203125 27.703125 -86.003906 27.703125 -83.609375 L 27.703125 -3.59375 C 27.703125 -1.195312 26.503906 0 24.109375 0 Z M 24.109375 0 "/></g></g></g><g fill="#0ca488" fill-opacity="1"><g transform="translate(283.939036, 180.043531)"><g><path d="M 53.734375 1.84375 C 47.359375 1.84375 41.378906 0.75 35.796875 -1.4375 C 30.222656 -3.632812 25.332031 -6.75 21.125 -10.78125 C 16.914062 -14.8125 13.628906 -19.601562 11.265625 -25.15625 C 8.898438 -30.707031 7.71875 -36.84375 7.71875 -43.5625 C 7.71875 -50.28125 8.898438 -56.414062 11.265625 -61.96875 C 13.628906 -67.519531 16.914062 -72.320312 21.125 -76.375 C 25.332031 -80.4375 30.222656 -83.5625 35.796875 -85.75 C 41.378906 -87.945312 47.359375 -89.046875 53.734375 -89.046875 C 59.109375 -89.046875 64.234375 -88.171875 69.109375 -86.421875 C 73.984375 -84.671875 78.421875 -82.1875 82.421875 -78.96875 C 86.429688 -75.757812 89.78125 -71.960938 92.46875 -67.578125 C 93.050781 -66.578125 93.195312 -65.640625 92.90625 -64.765625 C 92.613281 -63.890625 91.972656 -63.191406 90.984375 -62.671875 L 84.140625 -58.28125 C 82.273438 -57.289062 80.640625 -57.757812 79.234375 -59.6875 C 76.546875 -64.007812 72.976562 -67.457031 68.53125 -70.03125 C 64.09375 -72.601562 59.160156 -73.890625 53.734375 -73.890625 C 49.523438 -73.890625 45.609375 -73.171875 41.984375 -71.734375 C 38.359375 -70.304688 35.15625 -68.25 32.375 -65.5625 C 29.601562 -62.875 27.441406 -59.671875 25.890625 -55.953125 C 24.347656 -52.242188 23.578125 -48.113281 23.578125 -43.5625 C 23.578125 -39 24.347656 -34.863281 25.890625 -31.15625 C 27.441406 -27.445312 29.601562 -24.257812 32.375 -21.59375 C 35.15625 -18.9375 38.359375 -16.878906 41.984375 -15.421875 C 45.609375 -13.960938 49.523438 -13.234375 53.734375 -13.234375 C 58.929688 -13.234375 63.804688 -14.519531 68.359375 -17.09375 C 72.921875 -19.664062 76.488281 -23.082031 79.0625 -27.34375 C 80.519531 -29.382812 82.15625 -29.910156 83.96875 -28.921875 L 90.984375 -24.1875 C 93.078125 -22.957031 93.539062 -21.378906 92.375 -19.453125 C 89.75 -15.128906 86.421875 -11.359375 82.390625 -8.140625 C 78.359375 -4.929688 73.882812 -2.460938 68.96875 -0.734375 C 64.0625 0.984375 58.984375 1.84375 53.734375 1.84375 Z M 53.734375 1.84375 "/></g></g></g><g fill="#0ca488" fill-opacity="1"><g transform="translate(375.317909, 180.043531)"><g><path d="M 59.15625 -89.046875 C 65.414062 -89.046875 71.273438 -87.863281 76.734375 -85.5 C 82.191406 -83.132812 86.976562 -79.863281 91.09375 -75.6875 C 95.21875 -71.507812 98.4375 -66.671875 100.75 -61.171875 C 103.0625 -55.679688 104.21875 -49.8125 104.21875 -43.5625 C 104.21875 -37.3125 103.0625 -31.4375 100.75 -25.9375 C 98.4375 -20.445312 95.21875 -15.628906 91.09375 -11.484375 C 86.976562 -7.335938 82.191406 -4.078125 76.734375 -1.703125 C 71.273438 0.660156 65.414062 1.84375 59.15625 1.84375 C 52.789062 1.84375 46.703125 0.570312 40.890625 -1.96875 C 35.078125 -4.507812 30.125 -8.175781 26.03125 -12.96875 L 24.1875 -3.25 C 23.84375 -1.082031 22.53125 0 20.25 0 L 15.34375 0 C 12.945312 0 11.75 -1.195312 11.75 -3.59375 L 12 -131.03125 C 12 -133.425781 13.171875 -134.625 15.515625 -134.625 L 24.28125 -134.625 C 26.675781 -134.625 27.875 -133.425781 27.875 -131.03125 L 27.78125 -76.171875 C 31.875 -80.316406 36.664062 -83.5 42.15625 -85.71875 C 47.644531 -87.9375 53.3125 -89.046875 59.15625 -89.046875 Z M 57.9375 -13.234375 C 62.082031 -13.234375 65.992188 -14.019531 69.671875 -15.59375 C 73.359375 -17.175781 76.585938 -19.351562 79.359375 -22.125 C 82.140625 -24.90625 84.316406 -28.132812 85.890625 -31.8125 C 87.472656 -35.5 88.265625 -39.414062 88.265625 -43.5625 C 88.265625 -47.707031 87.472656 -51.617188 85.890625 -55.296875 C 84.316406 -58.984375 82.140625 -62.210938 79.359375 -64.984375 C 76.585938 -67.765625 73.359375 -69.941406 69.671875 -71.515625 C 65.992188 -73.097656 62.082031 -73.890625 57.9375 -73.890625 C 53.789062 -73.890625 49.875 -73.097656 46.1875 -71.515625 C 42.507812 -69.941406 39.28125 -67.765625 36.5 -64.984375 C 33.726562 -62.210938 31.550781 -58.984375 29.96875 -55.296875 C 28.394531 -51.617188 27.609375 -47.707031 27.609375 -43.5625 C 27.609375 -39.414062 28.394531 -35.5 29.96875 -31.8125 C 31.550781 -28.132812 33.726562 -24.90625 36.5 -22.125 C 39.28125 -19.351562 42.507812 -17.175781 46.1875 -15.59375 C 49.875 -14.019531 53.789062 -13.234375 57.9375 -13.234375 Z M 57.9375 -13.234375 "/></g></g></g><g fill="#0ca488" fill-opacity="1"><g transform="translate(478.440757, 180.043531)"><g><path d="M 53.640625 1.84375 C 47.273438 1.84375 41.300781 0.75 35.71875 -1.4375 C 30.132812 -3.632812 25.253906 -6.75 21.078125 -10.78125 C 16.898438 -14.8125 13.628906 -19.601562 11.265625 -25.15625 C 8.898438 -30.707031 7.71875 -36.84375 7.71875 -43.5625 C 7.71875 -50.28125 8.898438 -56.414062 11.265625 -61.96875 C 13.628906 -67.519531 16.898438 -72.320312 21.078125 -76.375 C 25.253906 -80.4375 30.132812 -83.5625 35.71875 -85.75 C 41.300781 -87.945312 47.273438 -89.046875 53.640625 -89.046875 C 60.066406 -89.046875 66.054688 -87.945312 71.609375 -85.75 C 77.160156 -83.5625 82.023438 -80.4375 86.203125 -76.375 C 90.378906 -72.320312 93.648438 -67.519531 96.015625 -61.96875 C 98.378906 -56.414062 99.5625 -50.28125 99.5625 -43.5625 C 99.5625 -36.84375 98.378906 -30.707031 96.015625 -25.15625 C 93.648438 -19.601562 90.378906 -14.8125 86.203125 -10.78125 C 82.023438 -6.75 77.160156 -3.632812 71.609375 -1.4375 C 66.054688 0.75 60.066406 1.84375 53.640625 1.84375 Z M 53.640625 -13.234375 C 57.847656 -13.234375 61.757812 -13.960938 65.375 -15.421875 C 69 -16.878906 72.1875 -18.9375 74.9375 -21.59375 C 77.6875 -24.257812 79.832031 -27.445312 81.375 -31.15625 C 82.925781 -34.863281 83.703125 -39 83.703125 -43.5625 C 83.703125 -48.113281 82.925781 -52.242188 81.375 -55.953125 C 79.832031 -59.671875 77.6875 -62.875 74.9375 -65.5625 C 72.1875 -68.25 69 -70.304688 65.375 -71.734375 C 61.757812 -73.171875 57.847656 -73.890625 53.640625 -73.890625 C 49.429688 -73.890625 45.515625 -73.171875 41.890625 -71.734375 C 38.273438 -70.304688 35.09375 -68.25 32.34375 -65.5625 C 29.59375 -62.875 27.441406 -59.671875 25.890625 -55.953125 C 24.347656 -52.242188 23.578125 -48.113281 23.578125 -43.5625 C 23.578125 -39 24.347656 -34.863281 25.890625 -31.15625 C 27.441406 -27.445312 29.59375 -24.257812 32.34375 -21.59375 C 35.09375 -18.9375 38.273438 -16.878906 41.890625 -15.421875 C 45.515625 -13.960938 49.429688 -13.234375 53.640625 -13.234375 Z M 53.640625 -13.234375 "/></g></g></g><g fill="#0ca488" fill-opacity="1"><g transform="translate(577.093909, 180.043531)"><g><path d="M 44.609375 -89.046875 C 49.460938 -89.046875 53.992188 -88.472656 58.203125 -87.328125 C 62.410156 -86.191406 66.085938 -84.410156 69.234375 -81.984375 C 72.390625 -79.566406 74.84375 -76.425781 76.59375 -72.5625 C 78.351562 -68.707031 79.234375 -64.035156 79.234375 -58.546875 L 79.234375 -3.59375 C 79.234375 -1.195312 78.035156 0 75.640625 0 L 70.734375 0 C 68.515625 0 67.195312 -1.082031 66.78125 -3.25 L 65.203125 -11.5625 C 62.753906 -8.175781 59.921875 -5.503906 56.703125 -3.546875 C 53.492188 -1.585938 50.132812 -0.203125 46.625 0.609375 C 43.125 1.429688 39.707031 1.84375 36.375 1.84375 C 32.519531 1.84375 28.867188 1.34375 25.421875 0.34375 C 21.972656 -0.644531 18.90625 -2.191406 16.21875 -4.296875 C 13.53125 -6.398438 11.425781 -9.070312 9.90625 -12.3125 C 8.382812 -15.550781 7.625 -19.453125 7.625 -24.015625 C 7.625 -30.503906 9.171875 -35.863281 12.265625 -40.09375 C 15.367188 -44.332031 19.617188 -47.488281 25.015625 -49.5625 C 30.421875 -51.632812 36.515625 -52.671875 43.296875 -52.671875 C 46.515625 -52.671875 49.785156 -52.476562 53.109375 -52.09375 C 56.441406 -51.71875 59.863281 -51.148438 63.375 -50.390625 L 63.375 -57.40625 C 63.375 -61.789062 62.476562 -65.265625 60.6875 -67.828125 C 58.90625 -70.398438 56.476562 -72.242188 53.40625 -73.359375 C 50.34375 -74.472656 46.914062 -75.03125 43.125 -75.03125 C 39.5 -75.03125 35.6875 -74.617188 31.6875 -73.796875 C 27.6875 -72.984375 23.695312 -71.90625 19.71875 -70.5625 C 17.4375 -69.800781 15.914062 -70.5 15.15625 -72.65625 L 13.140625 -79.234375 C 12.503906 -81.515625 13.265625 -83.0625 15.421875 -83.875 C 20.328125 -85.570312 25.265625 -86.859375 30.234375 -87.734375 C 35.203125 -88.609375 39.992188 -89.046875 44.609375 -89.046875 Z M 39 -10.78125 C 41.507812 -10.78125 44.179688 -11.203125 47.015625 -12.046875 C 49.847656 -12.898438 52.503906 -14.273438 54.984375 -16.171875 C 57.472656 -18.066406 59.492188 -20.5625 61.046875 -23.65625 C 62.597656 -26.757812 63.375 -30.53125 63.375 -34.96875 L 63.375 -38.03125 C 60.394531 -38.675781 57.484375 -39.160156 54.640625 -39.484375 C 51.804688 -39.804688 49.109375 -39.96875 46.546875 -39.96875 C 42.097656 -39.96875 38.148438 -39.457031 34.703125 -38.4375 C 31.253906 -37.414062 28.535156 -35.765625 26.546875 -33.484375 C 24.566406 -31.203125 23.578125 -28.222656 23.578125 -24.546875 C 23.578125 -21.390625 24.273438 -18.800781 25.671875 -16.78125 C 27.078125 -14.769531 28.945312 -13.265625 31.28125 -12.265625 C 33.625 -11.273438 36.195312 -10.78125 39 -10.78125 Z M 39 -10.78125 "/></g></g></g><g fill="#0ca488" fill-opacity="1"><g transform="translate(658.744591, 180.043531)"><g><path d="M 24.109375 0 L 15.34375 0 C 12.945312 0 11.75 -1.195312 11.75 -3.59375 L 11.75 -83.609375 C 11.75 -86.003906 12.945312 -87.203125 15.34375 -87.203125 L 20.25 -87.203125 C 22.46875 -87.203125 23.78125 -86.125 24.1875 -83.96875 L 26.03125 -74.15625 C 28.71875 -79.40625 32.09375 -83.195312 36.15625 -85.53125 C 40.21875 -87.875 44.554688 -89.046875 49.171875 -89.046875 C 50.335938 -89.046875 51.5625 -88.941406 52.84375 -88.734375 C 54.132812 -88.535156 55.453125 -88.289062 56.796875 -88 C 57.847656 -87.757812 58.578125 -87.242188 58.984375 -86.453125 C 59.390625 -85.671875 59.445312 -84.753906 59.15625 -83.703125 L 57.0625 -75.734375 C 56.820312 -74.617188 56.320312 -73.867188 55.5625 -73.484375 C 54.800781 -73.109375 53.867188 -73.035156 52.765625 -73.265625 C 51.765625 -73.503906 50.828125 -73.664062 49.953125 -73.75 C 49.078125 -73.84375 48.257812 -73.890625 47.5 -73.890625 C 41.488281 -73.890625 36.6875 -71.59375 33.09375 -67 C 29.5 -62.414062 27.703125 -55.625 27.703125 -46.625 L 27.703125 -3.59375 C 27.703125 -1.195312 26.503906 0 24.109375 0 Z M 24.109375 0 "/></g></g></g><g fill="#0ca488" fill-opacity="1"><g transform="translate(708.931733, 180.043531)"><g><path d="M 99.921875 -131.03125 L 100.1875 -3.59375 C 100.1875 -1.195312 98.988281 0 96.59375 0 L 91.671875 0 C 89.398438 0 88.085938 -1.082031 87.734375 -3.25 L 85.890625 -12.96875 C 81.804688 -8.175781 76.851562 -4.507812 71.03125 -1.96875 C 65.21875 0.570312 59.128906 1.84375 52.765625 1.84375 C 46.515625 1.84375 40.65625 0.660156 35.1875 -1.703125 C 29.726562 -4.078125 24.9375 -7.335938 20.8125 -11.484375 C 16.695312 -15.628906 13.484375 -20.445312 11.171875 -25.9375 C 8.867188 -31.4375 7.71875 -37.3125 7.71875 -43.5625 C 7.71875 -49.8125 8.867188 -55.679688 11.171875 -61.171875 C 13.484375 -66.671875 16.695312 -71.507812 20.8125 -75.6875 C 24.9375 -79.863281 29.726562 -83.132812 35.1875 -85.5 C 40.65625 -87.863281 46.515625 -89.046875 52.765625 -89.046875 C 58.660156 -89.046875 64.335938 -87.9375 69.796875 -85.71875 C 75.265625 -83.5 80.046875 -80.316406 84.140625 -76.171875 L 84.046875 -131.03125 C 84.046875 -133.425781 85.242188 -134.625 87.640625 -134.625 L 96.40625 -134.625 C 98.75 -134.625 99.921875 -133.425781 99.921875 -131.03125 Z M 53.984375 -13.234375 C 58.140625 -13.234375 62.054688 -14.019531 65.734375 -15.59375 C 69.410156 -17.175781 72.632812 -19.351562 75.40625 -22.125 C 78.1875 -24.90625 80.363281 -28.132812 81.9375 -31.8125 C 83.519531 -35.5 84.3125 -39.414062 84.3125 -43.5625 C 84.3125 -47.707031 83.519531 -51.617188 81.9375 -55.296875 C 80.363281 -58.984375 78.1875 -62.210938 75.40625 -64.984375 C 72.632812 -67.765625 69.410156 -69.941406 65.734375 -71.515625 C 62.054688 -73.097656 58.140625 -73.890625 53.984375 -73.890625 C 49.835938 -73.890625 45.921875 -73.097656 42.234375 -71.515625 C 38.554688 -69.941406 35.328125 -67.765625 32.546875 -64.984375 C 29.773438 -62.210938 27.601562 -58.984375 26.03125 -55.296875 C 24.457031 -51.617188 23.671875 -47.707031 23.671875 -43.5625 C 23.671875 -39.414062 24.457031 -35.5 26.03125 -31.8125 C 27.601562 -28.132812 29.773438 -24.90625 32.546875 -22.125 C 35.328125 -19.351562 38.554688 -17.175781 42.234375 -15.59375 C 45.921875 -14.019531 49.835938 -13.234375 53.984375 -13.234375 Z M 53.984375 -13.234375 "/></g></g></g></g></g></svg>